<mxfile host="app.diagrams.net" modified="2024-02-27T14:35:36.950Z" agent="Mozilla/5.0 (Windows NT 10.0; Win64; x64) AppleWebKit/537.36 (KHTML, like Gecko) Chrome/122.0.0.0 Safari/537.36 Edg/122.0.0.0" etag="ZhDywn8rtuVraURNC-S_" version="23.1.5" type="device">
  <diagram id="C5RBs43oDa-KdzZeNtuy" name="Page-1">
    <mxGraphModel dx="1059" dy="742" grid="1" gridSize="10" guides="1" tooltips="1" connect="1" arrows="1" fold="1" page="1" pageScale="1" pageWidth="827" pageHeight="1169" math="0" shadow="0">
      <root>
        <mxCell id="WIyWlLk6GJQsqaUBKTNV-0" />
        <mxCell id="WIyWlLk6GJQsqaUBKTNV-1" parent="WIyWlLk6GJQsqaUBKTNV-0" />
        <mxCell id="aMqjufp6LR2grknPyUqh-58" value="" style="rounded=0;whiteSpace=wrap;html=1;" vertex="1" parent="WIyWlLk6GJQsqaUBKTNV-1">
          <mxGeometry x="40" y="640" width="820" height="170" as="geometry" />
        </mxCell>
        <mxCell id="aMqjufp6LR2grknPyUqh-37" value="" style="rounded=0;whiteSpace=wrap;html=1;" vertex="1" parent="WIyWlLk6GJQsqaUBKTNV-1">
          <mxGeometry x="40" y="430" width="1070" height="190" as="geometry" />
        </mxCell>
        <mxCell id="aMqjufp6LR2grknPyUqh-36" value="" style="rounded=0;whiteSpace=wrap;html=1;" vertex="1" parent="WIyWlLk6GJQsqaUBKTNV-1">
          <mxGeometry x="40" y="60" width="590" height="360" as="geometry" />
        </mxCell>
        <mxCell id="aMqjufp6LR2grknPyUqh-3" value="" style="edgeStyle=orthogonalEdgeStyle;rounded=0;orthogonalLoop=1;jettySize=auto;html=1;" edge="1" parent="WIyWlLk6GJQsqaUBKTNV-1" source="aMqjufp6LR2grknPyUqh-0" target="aMqjufp6LR2grknPyUqh-2">
          <mxGeometry relative="1" as="geometry" />
        </mxCell>
        <mxCell id="aMqjufp6LR2grknPyUqh-13" value="" style="edgeStyle=orthogonalEdgeStyle;rounded=0;orthogonalLoop=1;jettySize=auto;html=1;entryX=0;entryY=0.5;entryDx=0;entryDy=0;" edge="1" parent="WIyWlLk6GJQsqaUBKTNV-1" source="aMqjufp6LR2grknPyUqh-0" target="aMqjufp6LR2grknPyUqh-11">
          <mxGeometry relative="1" as="geometry">
            <mxPoint x="120" y="190" as="targetPoint" />
          </mxGeometry>
        </mxCell>
        <mxCell id="aMqjufp6LR2grknPyUqh-0" value="Regestrieren" style="rounded=1;whiteSpace=wrap;html=1;fontSize=12;glass=0;strokeWidth=1;shadow=0;arcSize=50;fillColor=#fff2cc;strokeColor=#d6b656;" vertex="1" parent="WIyWlLk6GJQsqaUBKTNV-1">
          <mxGeometry x="60" y="80" width="120" height="40" as="geometry" />
        </mxCell>
        <mxCell id="aMqjufp6LR2grknPyUqh-5" value="" style="edgeStyle=orthogonalEdgeStyle;rounded=0;orthogonalLoop=1;jettySize=auto;html=1;" edge="1" parent="WIyWlLk6GJQsqaUBKTNV-1" source="aMqjufp6LR2grknPyUqh-2" target="aMqjufp6LR2grknPyUqh-4">
          <mxGeometry relative="1" as="geometry" />
        </mxCell>
        <mxCell id="aMqjufp6LR2grknPyUqh-2" value="Erstellt einen neuen DB Eintrag" style="rounded=1;whiteSpace=wrap;html=1;fontSize=12;glass=0;strokeWidth=1;shadow=0;fillColor=#e1d5e7;strokeColor=#9673a6;" vertex="1" parent="WIyWlLk6GJQsqaUBKTNV-1">
          <mxGeometry x="230" y="80" width="120" height="40" as="geometry" />
        </mxCell>
        <mxCell id="aMqjufp6LR2grknPyUqh-20" style="edgeStyle=orthogonalEdgeStyle;rounded=0;orthogonalLoop=1;jettySize=auto;html=1;exitX=1;exitY=0.5;exitDx=0;exitDy=0;entryX=0.5;entryY=0;entryDx=0;entryDy=0;dashed=1;dashPattern=12 12;" edge="1" parent="WIyWlLk6GJQsqaUBKTNV-1" source="aMqjufp6LR2grknPyUqh-4" target="aMqjufp6LR2grknPyUqh-6">
          <mxGeometry relative="1" as="geometry">
            <Array as="points">
              <mxPoint x="540" y="100" />
              <mxPoint x="540" y="205" />
              <mxPoint x="120" y="205" />
            </Array>
          </mxGeometry>
        </mxCell>
        <mxCell id="aMqjufp6LR2grknPyUqh-4" value="Auto-Weiterleitung zur Anmelde Seite" style="rounded=1;whiteSpace=wrap;html=1;fontSize=12;glass=0;strokeWidth=1;shadow=0;arcSize=0;fillColor=#dae8fc;strokeColor=#6c8ebf;" vertex="1" parent="WIyWlLk6GJQsqaUBKTNV-1">
          <mxGeometry x="400" y="80" width="120" height="40" as="geometry" />
        </mxCell>
        <mxCell id="aMqjufp6LR2grknPyUqh-10" value="" style="edgeStyle=orthogonalEdgeStyle;rounded=0;orthogonalLoop=1;jettySize=auto;html=1;" edge="1" parent="WIyWlLk6GJQsqaUBKTNV-1" source="aMqjufp6LR2grknPyUqh-6" target="aMqjufp6LR2grknPyUqh-9">
          <mxGeometry relative="1" as="geometry" />
        </mxCell>
        <mxCell id="aMqjufp6LR2grknPyUqh-19" style="edgeStyle=orthogonalEdgeStyle;rounded=0;orthogonalLoop=1;jettySize=auto;html=1;exitX=1;exitY=0.5;exitDx=0;exitDy=0;entryX=0;entryY=0.5;entryDx=0;entryDy=0;" edge="1" parent="WIyWlLk6GJQsqaUBKTNV-1" source="aMqjufp6LR2grknPyUqh-6" target="aMqjufp6LR2grknPyUqh-16">
          <mxGeometry relative="1" as="geometry" />
        </mxCell>
        <mxCell id="aMqjufp6LR2grknPyUqh-6" value="Anmelden" style="rounded=1;whiteSpace=wrap;html=1;fontSize=12;glass=0;strokeWidth=1;shadow=0;arcSize=50;fillColor=#fff2cc;strokeColor=#d6b656;" vertex="1" parent="WIyWlLk6GJQsqaUBKTNV-1">
          <mxGeometry x="60" y="240" width="120" height="40" as="geometry" />
        </mxCell>
        <mxCell id="aMqjufp6LR2grknPyUqh-9" value="Auto-Weiterleitung&amp;nbsp; zur Home Seite" style="rounded=1;whiteSpace=wrap;html=1;fontSize=12;glass=0;strokeWidth=1;shadow=0;arcSize=0;fillColor=#dae8fc;strokeColor=#6c8ebf;" vertex="1" parent="WIyWlLk6GJQsqaUBKTNV-1">
          <mxGeometry x="230" y="240" width="120" height="40" as="geometry" />
        </mxCell>
        <mxCell id="aMqjufp6LR2grknPyUqh-15" style="edgeStyle=orthogonalEdgeStyle;rounded=0;orthogonalLoop=1;jettySize=auto;html=1;exitX=1;exitY=0.5;exitDx=0;exitDy=0;" edge="1" parent="WIyWlLk6GJQsqaUBKTNV-1" source="aMqjufp6LR2grknPyUqh-11" target="aMqjufp6LR2grknPyUqh-14">
          <mxGeometry relative="1" as="geometry" />
        </mxCell>
        <mxCell id="aMqjufp6LR2grknPyUqh-11" value="Rendert Ladeanimation" style="rounded=1;whiteSpace=wrap;html=1;fontSize=12;glass=0;strokeWidth=1;shadow=0;fillColor=#e1d5e7;strokeColor=#9673a6;" vertex="1" parent="WIyWlLk6GJQsqaUBKTNV-1">
          <mxGeometry x="230" y="140" width="120" height="40" as="geometry" />
        </mxCell>
        <mxCell id="aMqjufp6LR2grknPyUqh-14" value="Rendert Erfolgsanimation" style="rounded=1;whiteSpace=wrap;html=1;fontSize=12;glass=0;strokeWidth=1;shadow=0;fillColor=#e1d5e7;strokeColor=#9673a6;" vertex="1" parent="WIyWlLk6GJQsqaUBKTNV-1">
          <mxGeometry x="400" y="140" width="120" height="40" as="geometry" />
        </mxCell>
        <mxCell id="aMqjufp6LR2grknPyUqh-16" value="Rendert Erfolgsanimation" style="rounded=1;whiteSpace=wrap;html=1;fontSize=12;glass=0;strokeWidth=1;shadow=0;fillColor=#e1d5e7;strokeColor=#9673a6;" vertex="1" parent="WIyWlLk6GJQsqaUBKTNV-1">
          <mxGeometry x="230" y="300" width="120" height="40" as="geometry" />
        </mxCell>
        <mxCell id="aMqjufp6LR2grknPyUqh-28" style="edgeStyle=orthogonalEdgeStyle;rounded=0;orthogonalLoop=1;jettySize=auto;html=1;exitX=1;exitY=0.5;exitDx=0;exitDy=0;entryX=0;entryY=0.5;entryDx=0;entryDy=0;" edge="1" parent="WIyWlLk6GJQsqaUBKTNV-1" source="aMqjufp6LR2grknPyUqh-21" target="aMqjufp6LR2grknPyUqh-24">
          <mxGeometry relative="1" as="geometry" />
        </mxCell>
        <mxCell id="aMqjufp6LR2grknPyUqh-21" value="&#39;Blackjack&#39;" style="rounded=1;whiteSpace=wrap;html=1;fontSize=12;glass=0;strokeWidth=1;shadow=0;arcSize=50;fillColor=#fff2cc;strokeColor=#d6b656;" vertex="1" parent="WIyWlLk6GJQsqaUBKTNV-1">
          <mxGeometry x="60" y="495" width="120" height="40" as="geometry" />
        </mxCell>
        <mxCell id="aMqjufp6LR2grknPyUqh-44" style="edgeStyle=orthogonalEdgeStyle;rounded=0;orthogonalLoop=1;jettySize=auto;html=1;exitX=1;exitY=0.5;exitDx=0;exitDy=0;" edge="1" parent="WIyWlLk6GJQsqaUBKTNV-1" source="aMqjufp6LR2grknPyUqh-24" target="aMqjufp6LR2grknPyUqh-42">
          <mxGeometry relative="1" as="geometry" />
        </mxCell>
        <mxCell id="aMqjufp6LR2grknPyUqh-24" value="Weiterleitung&amp;nbsp; zur Blackjack Seite" style="rounded=1;whiteSpace=wrap;html=1;fontSize=12;glass=0;strokeWidth=1;shadow=0;arcSize=0;fillColor=#dae8fc;strokeColor=#6c8ebf;" vertex="1" parent="WIyWlLk6GJQsqaUBKTNV-1">
          <mxGeometry x="230" y="495" width="120" height="40" as="geometry" />
        </mxCell>
        <mxCell id="aMqjufp6LR2grknPyUqh-31" style="edgeStyle=orthogonalEdgeStyle;rounded=0;orthogonalLoop=1;jettySize=auto;html=1;exitX=1;exitY=0.5;exitDx=0;exitDy=0;entryX=0;entryY=0.5;entryDx=0;entryDy=0;" edge="1" parent="WIyWlLk6GJQsqaUBKTNV-1" source="aMqjufp6LR2grknPyUqh-25">
          <mxGeometry relative="1" as="geometry">
            <mxPoint x="940" y="514.98" as="targetPoint" />
          </mxGeometry>
        </mxCell>
        <mxCell id="aMqjufp6LR2grknPyUqh-34" style="edgeStyle=orthogonalEdgeStyle;rounded=0;orthogonalLoop=1;jettySize=auto;html=1;entryX=0.5;entryY=0;entryDx=0;entryDy=0;" edge="1" parent="WIyWlLk6GJQsqaUBKTNV-1" source="aMqjufp6LR2grknPyUqh-25" target="aMqjufp6LR2grknPyUqh-26">
          <mxGeometry relative="1" as="geometry">
            <Array as="points">
              <mxPoint x="830" y="474.98" />
              <mxPoint x="660" y="474.98" />
            </Array>
          </mxGeometry>
        </mxCell>
        <mxCell id="aMqjufp6LR2grknPyUqh-25" value="Nutzer nimmt neue Karte" style="rounded=1;whiteSpace=wrap;html=1;fontSize=12;glass=0;strokeWidth=1;shadow=0;arcSize=50;fillColor=#fff2cc;strokeColor=#d6b656;" vertex="1" parent="WIyWlLk6GJQsqaUBKTNV-1">
          <mxGeometry x="770" y="494.98" width="120" height="40" as="geometry" />
        </mxCell>
        <mxCell id="aMqjufp6LR2grknPyUqh-30" style="edgeStyle=orthogonalEdgeStyle;rounded=0;orthogonalLoop=1;jettySize=auto;html=1;exitX=1;exitY=0.5;exitDx=0;exitDy=0;entryX=0;entryY=0.5;entryDx=0;entryDy=0;" edge="1" parent="WIyWlLk6GJQsqaUBKTNV-1" source="aMqjufp6LR2grknPyUqh-26" target="aMqjufp6LR2grknPyUqh-25">
          <mxGeometry relative="1" as="geometry" />
        </mxCell>
        <mxCell id="aMqjufp6LR2grknPyUqh-26" value="Karten werden verteilt" style="rounded=1;whiteSpace=wrap;html=1;fontSize=12;glass=0;strokeWidth=1;shadow=0;fillColor=#e1d5e7;strokeColor=#9673a6;" vertex="1" parent="WIyWlLk6GJQsqaUBKTNV-1">
          <mxGeometry x="600" y="494.98" width="120" height="40" as="geometry" />
        </mxCell>
        <mxCell id="aMqjufp6LR2grknPyUqh-27" value="Gew./ Verl. wird mit Bankkonto verrechnet" style="rounded=1;whiteSpace=wrap;html=1;fontSize=12;glass=0;strokeWidth=1;shadow=0;fillColor=#e1d5e7;strokeColor=#9673a6;" vertex="1" parent="WIyWlLk6GJQsqaUBKTNV-1">
          <mxGeometry x="940" y="494.98" width="120" height="40" as="geometry" />
        </mxCell>
        <mxCell id="aMqjufp6LR2grknPyUqh-35" style="edgeStyle=orthogonalEdgeStyle;rounded=0;orthogonalLoop=1;jettySize=auto;html=1;exitX=1;exitY=0.5;exitDx=0;exitDy=0;entryX=0.5;entryY=1;entryDx=0;entryDy=0;" edge="1" parent="WIyWlLk6GJQsqaUBKTNV-1" source="aMqjufp6LR2grknPyUqh-32">
          <mxGeometry relative="1" as="geometry">
            <mxPoint x="1000" y="534.98" as="targetPoint" />
          </mxGeometry>
        </mxCell>
        <mxCell id="aMqjufp6LR2grknPyUqh-32" value="Nutzer passt" style="rounded=1;whiteSpace=wrap;html=1;fontSize=12;glass=0;strokeWidth=1;shadow=0;arcSize=50;fillColor=#fff2cc;strokeColor=#d6b656;" vertex="1" parent="WIyWlLk6GJQsqaUBKTNV-1">
          <mxGeometry x="770" y="554.98" width="120" height="40" as="geometry" />
        </mxCell>
        <mxCell id="aMqjufp6LR2grknPyUqh-33" style="edgeStyle=orthogonalEdgeStyle;rounded=0;orthogonalLoop=1;jettySize=auto;html=1;exitX=0.5;exitY=1;exitDx=0;exitDy=0;entryX=-0.008;entryY=0.625;entryDx=0;entryDy=0;entryPerimeter=0;" edge="1" parent="WIyWlLk6GJQsqaUBKTNV-1" source="aMqjufp6LR2grknPyUqh-26" target="aMqjufp6LR2grknPyUqh-32">
          <mxGeometry relative="1" as="geometry" />
        </mxCell>
        <mxCell id="aMqjufp6LR2grknPyUqh-47" style="edgeStyle=orthogonalEdgeStyle;rounded=0;orthogonalLoop=1;jettySize=auto;html=1;exitX=1;exitY=0.5;exitDx=0;exitDy=0;entryX=0;entryY=0.5;entryDx=0;entryDy=0;" edge="1" parent="WIyWlLk6GJQsqaUBKTNV-1" source="aMqjufp6LR2grknPyUqh-38" target="aMqjufp6LR2grknPyUqh-39">
          <mxGeometry relative="1" as="geometry" />
        </mxCell>
        <mxCell id="aMqjufp6LR2grknPyUqh-38" value="&#39;Slot Maschine&#39;" style="rounded=1;whiteSpace=wrap;html=1;fontSize=12;glass=0;strokeWidth=1;shadow=0;arcSize=50;fillColor=#fff2cc;strokeColor=#d6b656;" vertex="1" parent="WIyWlLk6GJQsqaUBKTNV-1">
          <mxGeometry x="70" y="710" width="120" height="40" as="geometry" />
        </mxCell>
        <mxCell id="aMqjufp6LR2grknPyUqh-49" style="edgeStyle=orthogonalEdgeStyle;rounded=0;orthogonalLoop=1;jettySize=auto;html=1;exitX=1;exitY=0.5;exitDx=0;exitDy=0;" edge="1" parent="WIyWlLk6GJQsqaUBKTNV-1" source="aMqjufp6LR2grknPyUqh-39" target="aMqjufp6LR2grknPyUqh-41">
          <mxGeometry relative="1" as="geometry" />
        </mxCell>
        <mxCell id="aMqjufp6LR2grknPyUqh-39" value="Weiterleitung&amp;nbsp; zur Slot Maschinen Seite" style="rounded=1;whiteSpace=wrap;html=1;fontSize=12;glass=0;strokeWidth=1;shadow=0;arcSize=0;fillColor=#dae8fc;strokeColor=#6c8ebf;" vertex="1" parent="WIyWlLk6GJQsqaUBKTNV-1">
          <mxGeometry x="240" y="710" width="120" height="40" as="geometry" />
        </mxCell>
        <mxCell id="aMqjufp6LR2grknPyUqh-50" style="edgeStyle=orthogonalEdgeStyle;rounded=0;orthogonalLoop=1;jettySize=auto;html=1;exitX=0.5;exitY=1;exitDx=0;exitDy=0;entryX=0.5;entryY=0;entryDx=0;entryDy=0;" edge="1" parent="WIyWlLk6GJQsqaUBKTNV-1" source="aMqjufp6LR2grknPyUqh-41" target="aMqjufp6LR2grknPyUqh-48">
          <mxGeometry relative="1" as="geometry" />
        </mxCell>
        <mxCell id="aMqjufp6LR2grknPyUqh-41" value="Nutzer bestimmt Einsatz" style="rounded=1;whiteSpace=wrap;html=1;fontSize=12;glass=0;strokeWidth=1;shadow=0;arcSize=50;fillColor=#fff2cc;strokeColor=#d6b656;" vertex="1" parent="WIyWlLk6GJQsqaUBKTNV-1">
          <mxGeometry x="410" y="680" width="120" height="40" as="geometry" />
        </mxCell>
        <mxCell id="aMqjufp6LR2grknPyUqh-45" style="edgeStyle=orthogonalEdgeStyle;rounded=0;orthogonalLoop=1;jettySize=auto;html=1;exitX=0.5;exitY=1;exitDx=0;exitDy=0;entryX=0.5;entryY=0;entryDx=0;entryDy=0;" edge="1" parent="WIyWlLk6GJQsqaUBKTNV-1" source="aMqjufp6LR2grknPyUqh-42" target="aMqjufp6LR2grknPyUqh-43">
          <mxGeometry relative="1" as="geometry" />
        </mxCell>
        <mxCell id="aMqjufp6LR2grknPyUqh-42" value="Nutzer bestimmt Einsatz" style="rounded=1;whiteSpace=wrap;html=1;fontSize=12;glass=0;strokeWidth=1;shadow=0;arcSize=50;fillColor=#fff2cc;strokeColor=#d6b656;" vertex="1" parent="WIyWlLk6GJQsqaUBKTNV-1">
          <mxGeometry x="400" y="470" width="120" height="40" as="geometry" />
        </mxCell>
        <mxCell id="aMqjufp6LR2grknPyUqh-46" style="edgeStyle=orthogonalEdgeStyle;rounded=0;orthogonalLoop=1;jettySize=auto;html=1;exitX=1;exitY=0.5;exitDx=0;exitDy=0;entryX=0;entryY=0.5;entryDx=0;entryDy=0;" edge="1" parent="WIyWlLk6GJQsqaUBKTNV-1" source="aMqjufp6LR2grknPyUqh-43" target="aMqjufp6LR2grknPyUqh-26">
          <mxGeometry relative="1" as="geometry" />
        </mxCell>
        <mxCell id="aMqjufp6LR2grknPyUqh-43" value="&#39;Spielen&#39;" style="rounded=1;whiteSpace=wrap;html=1;fontSize=12;glass=0;strokeWidth=1;shadow=0;arcSize=50;fillColor=#fff2cc;strokeColor=#d6b656;" vertex="1" parent="WIyWlLk6GJQsqaUBKTNV-1">
          <mxGeometry x="400" y="530" width="120" height="40" as="geometry" />
        </mxCell>
        <mxCell id="aMqjufp6LR2grknPyUqh-54" style="edgeStyle=orthogonalEdgeStyle;rounded=0;orthogonalLoop=1;jettySize=auto;html=1;exitX=1;exitY=0.5;exitDx=0;exitDy=0;entryX=0;entryY=0.5;entryDx=0;entryDy=0;" edge="1" parent="WIyWlLk6GJQsqaUBKTNV-1" source="aMqjufp6LR2grknPyUqh-48" target="aMqjufp6LR2grknPyUqh-51">
          <mxGeometry relative="1" as="geometry" />
        </mxCell>
        <mxCell id="aMqjufp6LR2grknPyUqh-55" style="edgeStyle=orthogonalEdgeStyle;rounded=0;orthogonalLoop=1;jettySize=auto;html=1;exitX=1;exitY=0.5;exitDx=0;exitDy=0;entryX=0;entryY=0.5;entryDx=0;entryDy=0;" edge="1" parent="WIyWlLk6GJQsqaUBKTNV-1" source="aMqjufp6LR2grknPyUqh-48" target="aMqjufp6LR2grknPyUqh-53">
          <mxGeometry relative="1" as="geometry" />
        </mxCell>
        <mxCell id="aMqjufp6LR2grknPyUqh-48" value="&#39;Drehen&#39;" style="rounded=1;whiteSpace=wrap;html=1;fontSize=12;glass=0;strokeWidth=1;shadow=0;arcSize=50;fillColor=#fff2cc;strokeColor=#d6b656;" vertex="1" parent="WIyWlLk6GJQsqaUBKTNV-1">
          <mxGeometry x="410" y="740" width="120" height="40" as="geometry" />
        </mxCell>
        <mxCell id="aMqjufp6LR2grknPyUqh-56" style="edgeStyle=orthogonalEdgeStyle;rounded=0;orthogonalLoop=1;jettySize=auto;html=1;exitX=1;exitY=0.5;exitDx=0;exitDy=0;entryX=0;entryY=0.5;entryDx=0;entryDy=0;" edge="1" parent="WIyWlLk6GJQsqaUBKTNV-1" source="aMqjufp6LR2grknPyUqh-51" target="aMqjufp6LR2grknPyUqh-52">
          <mxGeometry relative="1" as="geometry" />
        </mxCell>
        <mxCell id="aMqjufp6LR2grknPyUqh-51" value="Rendert Drehanimation" style="rounded=1;whiteSpace=wrap;html=1;fontSize=12;glass=0;strokeWidth=1;shadow=0;fillColor=#e1d5e7;strokeColor=#9673a6;" vertex="1" parent="WIyWlLk6GJQsqaUBKTNV-1">
          <mxGeometry x="570" y="740" width="120" height="40" as="geometry" />
        </mxCell>
        <mxCell id="aMqjufp6LR2grknPyUqh-57" style="edgeStyle=orthogonalEdgeStyle;rounded=0;orthogonalLoop=1;jettySize=auto;html=1;exitX=0.5;exitY=1;exitDx=0;exitDy=0;entryX=0.5;entryY=0;entryDx=0;entryDy=0;" edge="1" parent="WIyWlLk6GJQsqaUBKTNV-1" source="aMqjufp6LR2grknPyUqh-52" target="aMqjufp6LR2grknPyUqh-41">
          <mxGeometry relative="1" as="geometry">
            <Array as="points">
              <mxPoint x="777" y="660" />
              <mxPoint x="470" y="660" />
            </Array>
          </mxGeometry>
        </mxCell>
        <mxCell id="aMqjufp6LR2grknPyUqh-52" value="Zeigt Resultat" style="rounded=1;whiteSpace=wrap;html=1;fontSize=12;glass=0;strokeWidth=1;shadow=0;fillColor=#e1d5e7;strokeColor=#9673a6;" vertex="1" parent="WIyWlLk6GJQsqaUBKTNV-1">
          <mxGeometry x="717" y="740" width="120" height="40" as="geometry" />
        </mxCell>
        <mxCell id="aMqjufp6LR2grknPyUqh-53" value="Gew./ Verl. wird mit Bankkonto verrechnet" style="rounded=1;whiteSpace=wrap;html=1;fontSize=12;glass=0;strokeWidth=1;shadow=0;fillColor=#e1d5e7;strokeColor=#9673a6;" vertex="1" parent="WIyWlLk6GJQsqaUBKTNV-1">
          <mxGeometry x="570" y="680" width="120" height="40" as="geometry" />
        </mxCell>
        <mxCell id="aMqjufp6LR2grknPyUqh-59" value="" style="edgeStyle=orthogonalEdgeStyle;rounded=0;orthogonalLoop=1;jettySize=auto;html=1;" edge="1" parent="WIyWlLk6GJQsqaUBKTNV-1" source="aMqjufp6LR2grknPyUqh-61" target="aMqjufp6LR2grknPyUqh-62">
          <mxGeometry relative="1" as="geometry" />
        </mxCell>
        <mxCell id="aMqjufp6LR2grknPyUqh-61" value="Abmelden" style="rounded=1;whiteSpace=wrap;html=1;fontSize=12;glass=0;strokeWidth=1;shadow=0;arcSize=50;fillColor=#fff2cc;strokeColor=#d6b656;" vertex="1" parent="WIyWlLk6GJQsqaUBKTNV-1">
          <mxGeometry x="60" y="360" width="120" height="40" as="geometry" />
        </mxCell>
        <mxCell id="aMqjufp6LR2grknPyUqh-62" value="Auto-Weiterleitung&amp;nbsp; zur Willkommens Seite" style="rounded=1;whiteSpace=wrap;html=1;fontSize=12;glass=0;strokeWidth=1;shadow=0;arcSize=0;fillColor=#dae8fc;strokeColor=#6c8ebf;" vertex="1" parent="WIyWlLk6GJQsqaUBKTNV-1">
          <mxGeometry x="230" y="360" width="140" height="40" as="geometry" />
        </mxCell>
      </root>
    </mxGraphModel>
  </diagram>
</mxfile>
